<?xml version="1.0" encoding="UTF-8" standalone="no"?>
<!-- Generator: Adobe Illustrator 16.0.0, SVG Export Plug-In . SVG Version: 6.00 Build 0)  -->
<svg id="svg_1_" xmlns:rdf="http://www.w3.org/1999/02/22-rdf-syntax-ns#" xmlns="http://www.w3.org/2000/svg" enable-background="new 0 0 300 300" xml:space="preserve" height="300px" viewBox="0 0 300 300" width="300px" version="1.1" y="0px" x="0px" xmlns:cc="http://creativecommons.org/ns#" xmlns:dc="http://purl.org/dc/elements/1.1/"><metadata id="metadata3009"><rdf:RDF><cc:Work rdf:about=""><dc:format>image/svg+xml</dc:format><dc:type rdf:resource="http://purl.org/dc/dcmitype/StillImage"/><dc:title/></cc:Work></rdf:RDF></metadata>
<rect id="Background" height="300" width="300.09" y="0" x="0" fill="#2672ec"/>
<g id="svg_x5F_paths">
	<g id="svgb" display="none">
		<path id="E_1_" d="M256.25,151.95c0-53.27-43.184-96.453-96.453-96.453-45.833,0-84.198,31.968-94.017,74.823,24.157-27.101,41.063-38.036,51.187-42.412-24.525,21.912-42.144,47.204-53.578,66.897,1.511,51.948,44.094,93.598,96.408,93.598,41.94,0,77.623-26.771,90.905-64.156h-50.68c-7.499,12.669-21.936,21.25-38.522,21.25-24.301,0-44-18.412-44-41.125h137.96c0.52-4.05,0.79-8.2,0.79-12.41zm-138.96-13.95c0.771-22.075,19.983-39.75,43.588-39.75,23.604,0,42.817,17.675,43.588,39.75h-87.183z" fill="#C90000" display="inline"/>
		<path id="Ring_1_" d="M205.25,42.589c-35.928,7.031-65.163,24.664-88.286,45.322-26.998,24.122-45.654,52.364-56.87,72.694-8.678,15.75-12.907,26.75-13.09,27.4-29.466,105.34,71.5,49.75,71.5,49.75l23.894-24.206-18.856-10.086-15.873-13.431,6.835,42.723s-35.75,23-52.784,5.528c-7.098-7.27-8.08-25.51,9.284-59.27,7.968-15.492,18.586-13.318,25.953-8.935l-3.764-8.896,16.418-45.771,45.274-35.821,35.323,7.463,20.397,17.91v15.92l3.246,20.281,25.485-25.819c43.66-85.32-30.14-73.503-34.09-72.731zm-14.5,21.411s31.5-17.75,47.482-6.963c8.333,5.625,15.018,14.463,3.418,44.35-0.23,0.6-50.68-38.018-50.9-37.39z" fill="#FFF" display="inline"/>
	</g>
	<path id="svg" fill="#FFF" d="M256.25,151.95c0-16.968-4.387-32.909-12.08-46.761,32.791-74.213-35.136-63.343-38.918-62.603-14.391,2.816-27.705,7.337-39.986,13.068-1.811-0.102-3.633-0.158-5.469-0.158-45.833,0-84.198,31.968-94.017,74.823,24.157-27.101,41.063-38.036,51.187-42.412-1.616,1.444-3.198,2.904-4.754,4.375-0.518,0.489-1.017,0.985-1.528,1.477-1.026,0.987-2.05,1.975-3.05,2.972-0.595,0.593-1.174,1.191-1.76,1.788-0.887,0.903-1.772,1.805-2.638,2.713-0.615,0.645-1.215,1.292-1.819,1.938-0.809,0.866-1.613,1.733-2.402,2.603-0.613,0.676-1.216,1.352-1.818,2.03-0.748,0.842-1.489,1.684-2.22,2.528-0.606,0.7-1.207,1.4-1.801,2.101-0.693,0.818-1.377,1.636-2.054,2.454-0.599,0.724-1.196,1.447-1.782,2.17-0.634,0.782-1.254,1.563-1.873,2.343-0.6,0.756-1.2,1.511-1.786,2.266-0.558,0.719-1.1,1.435-1.646,2.152-0.616,0.81-1.237,1.62-1.837,2.426-0.429,0.577-0.841,1.148-1.262,1.723-3.811,5.2-7.293,10.3-10.438,15.199-0.008,0.012-0.016,0.024-0.023,0.036-0.828,1.29-1.627,2.561-2.41,3.821-0.042,0.068-0.086,0.137-0.128,0.206-0.784,1.265-1.541,2.508-2.279,3.738-0.026,0.043-0.053,0.087-0.079,0.13-1.984,3.311-3.824,6.503-5.481,9.506-8.679,15.74-12.908,26.74-13.091,27.39-27.432,98.072,58.184,56.657,70.131,50.475,12.864,6.355,27.346,9.932,42.666,9.932,41.94,0,77.623-26.771,90.905-64.156h-50.68c-7.499,12.669-21.936,21.25-38.522,21.25-24.301,0-44-18.412-44-41.125h137.96c0.52-4.07,0.79-8.22,0.79-12.43zm-18.02-94.913c8.306,5.606,14.968,14.41,3.527,44.059-10.973-17.647-27.482-31.49-47.104-39.099,8.92-4.315,31.03-13.433,43.57-4.964zm-176.51,181.24c-6.765-6.938-7.961-23.836,6.967-54.628,7.534,21.661,22.568,39.811,42,51.33-9.66,5.32-35.317,17.3-48.964,3.3zm55.574-100.28c0.771-22.075,19.983-39.75,43.588-39.75,23.604,0,42.817,17.675,43.588,39.75h-87.183z"/>
</g>
<flowRoot id="flowRoot3019" style="text-anchor:middle;letter-spacing:0px;word-spacing:0px;text-align:center;" font-weight="normal" xml:space="preserve" font-size="72px" line-height="125%" font-stretch="normal" font-variant="normal" font-style="normal" font-family="Segoe UI" fill="black"><flowRegion id="flowRegion3021"><rect id="rect3023" height="77.206" width="69.118" y="30.882" x="277.21"/></flowRegion><flowPara id="flowPara3025"/></flowRoot><text id="text3027" style="letter-spacing:0px;text-anchor:middle;word-spacing:0px;text-align:center;" font-weight="normal" xml:space="preserve" font-size="40px" font-style="normal" font-stretch="normal" font-variant="normal" y="60.3116" x="274.5238" font-family="Segoe UI" line-height="125%" fill="#000000"><tspan id="tspan3029" font-size="72px" y="60.3116" x="274.5238" fill="#ffffff">+</tspan></text>
</svg>
