<?xml version="1.0" encoding="UTF-8" standalone="no"?>
<!-- Generator: Adobe Illustrator 16.0.0, SVG Export Plug-In . SVG Version: 6.00 Build 0)  -->
<svg id="svg_1_" xmlns:rdf="http://www.w3.org/1999/02/22-rdf-syntax-ns#" xmlns="http://www.w3.org/2000/svg" version="1.1" xml:space="preserve" height="300px" viewBox="0 0 300 300" width="300px" enable-background="new 0 0 300 300" y="0px" x="0px" xmlns:cc="http://creativecommons.org/ns#" xmlns:dc="http://purl.org/dc/elements/1.1/"><metadata id="metadata3009"><rdf:RDF><cc:Work rdf:about=""><dc:format>image/svg+xml</dc:format><dc:type rdf:resource="http://purl.org/dc/dcmitype/StillImage"/><dc:title/></cc:Work></rdf:RDF></metadata>
<g id="svg_x5F_paths">
	<g id="svgb" display="none">
		<path id="E_1_" fill="#C90000" display="inline" d="M256.25,151.95c0-53.27-43.184-96.453-96.453-96.453-45.833,0-84.198,31.968-94.017,74.823,24.157-27.101,41.063-38.036,51.187-42.412-24.525,21.912-42.144,47.204-53.578,66.897,1.511,51.948,44.094,93.598,96.408,93.598,41.94,0,77.623-26.771,90.905-64.156h-50.68c-7.499,12.669-21.936,21.25-38.522,21.25-24.301,0-44-18.412-44-41.125h137.96c0.52-4.05,0.79-8.2,0.79-12.41zm-138.96-13.95c0.771-22.075,19.983-39.75,43.588-39.75,23.604,0,42.817,17.675,43.588,39.75h-87.183z"/>
		<path id="Ring_1_" fill="#FFF" display="inline" d="M205.25,42.589c-35.928,7.031-65.163,24.664-88.286,45.322-26.998,24.122-45.654,52.364-56.87,72.694-8.678,15.75-12.907,26.75-13.09,27.4-29.466,105.34,71.5,49.75,71.5,49.75l23.894-24.206-18.856-10.086-15.873-13.431,6.835,42.723s-35.75,23-52.784,5.528c-7.098-7.27-8.08-25.51,9.284-59.27,7.968-15.492,18.586-13.318,25.953-8.935l-3.764-8.896,16.418-45.771,45.274-35.821,35.323,7.463,20.397,17.91v15.92l3.246,20.281,25.485-25.819c43.66-85.32-30.14-73.503-34.09-72.731zm-14.5,21.411s31.5-17.75,47.482-6.963c8.333,5.625,15.018,14.463,3.418,44.35-0.23,0.6-50.68-38.018-50.9-37.39z"/>
	</g>
	<path id="svg" d="M256.25,151.95c0-16.968-4.387-32.909-12.08-46.761,32.791-74.213-35.136-63.343-38.918-62.603-14.391,2.816-27.705,7.337-39.986,13.068-1.811-0.102-3.633-0.158-5.469-0.158-45.833,0-84.198,31.968-94.017,74.823,24.157-27.101,41.063-38.036,51.187-42.412-1.616,1.444-3.198,2.904-4.754,4.375-0.518,0.489-1.017,0.985-1.528,1.477-1.026,0.987-2.05,1.975-3.05,2.972-0.595,0.593-1.174,1.191-1.76,1.788-0.887,0.903-1.772,1.805-2.638,2.713-0.615,0.645-1.215,1.292-1.819,1.938-0.809,0.866-1.613,1.733-2.402,2.603-0.613,0.676-1.216,1.352-1.818,2.03-0.748,0.842-1.489,1.684-2.22,2.528-0.606,0.7-1.207,1.4-1.801,2.101-0.693,0.818-1.377,1.636-2.054,2.454-0.599,0.724-1.196,1.447-1.782,2.17-0.634,0.782-1.254,1.563-1.873,2.343-0.6,0.756-1.2,1.511-1.786,2.266-0.558,0.719-1.1,1.435-1.646,2.152-0.616,0.81-1.237,1.62-1.837,2.426-0.429,0.577-0.841,1.148-1.262,1.723-3.811,5.2-7.293,10.3-10.438,15.199-0.008,0.012-0.016,0.024-0.023,0.036-0.828,1.29-1.627,2.561-2.41,3.821-0.042,0.068-0.086,0.137-0.128,0.206-0.784,1.265-1.541,2.508-2.279,3.738-0.026,0.043-0.053,0.087-0.079,0.13-1.984,3.311-3.824,6.503-5.481,9.506-8.679,15.74-12.908,26.74-13.091,27.39-27.432,98.072,58.184,56.657,70.131,50.475,12.864,6.355,27.346,9.932,42.666,9.932,41.94,0,77.623-26.771,90.905-64.156h-50.68c-7.499,12.669-21.936,21.25-38.522,21.25-24.301,0-44-18.412-44-41.125h137.96c0.52-4.07,0.79-8.22,0.79-12.43zm-18.02-94.913c8.306,5.606,14.968,14.41,3.527,44.059-10.973-17.647-27.482-31.49-47.104-39.099,8.92-4.315,31.03-13.433,43.57-4.964zm-176.51,181.24c-6.765-6.938-7.961-23.836,6.967-54.628,7.534,21.661,22.568,39.811,42,51.33-9.66,5.32-35.317,17.3-48.964,3.3zm55.574-100.28c0.771-22.075,19.983-39.75,43.588-39.75,23.604,0,42.817,17.675,43.588,39.75h-87.183z" fill="#FFF"/>
</g>
<flowRoot id="flowRoot3019" style="word-spacing:0px;letter-spacing:0px;text-anchor:middle;text-align:center;" font-family="Segoe UI" xml:space="preserve" font-size="72px" line-height="125%" font-stretch="normal" font-variant="normal" font-style="normal" font-weight="normal" fill="black"><flowRegion id="flowRegion3021"><rect id="rect3023" y="30.882" width="69.118" x="277.21" height="77.206"/></flowRegion><flowPara id="flowPara3025"/></flowRoot><text id="text3027" style="word-spacing:0px;letter-spacing:0px;text-anchor:middle;text-align:center;" font-family="Segoe UI" xml:space="preserve" font-size="40px" font-style="normal" font-stretch="normal" line-height="125%" font-variant="normal" y="60.3116" x="274.5238" font-weight="normal" fill="#000000"><tspan id="tspan3029" y="60.3116" x="274.5238" font-size="72px" fill="#ffffff">+</tspan></text>
<path id="path3055" fill="#00F" d="m61.686,251.19c-18.865-4.0948-24.176-23.988-15.605-58.453,2.9767-11.969,16.62-37.804,30.711-58.157,10.736-15.506,26.798-34.378,36.167-42.494,2.1549-1.8668,3.9179-3.6567,3.9179-3.9776,0-0.80895-5.6827,2.1283-11.758,6.0776-8.3583,5.433-15.91,11.845-27.489,23.343-6.0302,5.9875-10.964,10.717-10.964,10.509,0-1.5006,4.4809-13.313,6.9431-18.303,4.9137-9.9583,9.8253-16.709,18.481-25.4,10.986-11.032,20.505-17.245,34.322-22.402,10.276-3.8352,22.909-6.1303,33.878-6.1546,5.0715-0.01125,6.1398-0.24471,11.441-2.5001,8.2242-3.4992,19.785-7.2258,28.728-9.2604,10.467-2.3814,22.933-2.5508,30.508-0.41439,18.666,5.2641,25.201,18.479,20.03,40.5-1.1902,5.069-3.9708,13.514-6.0194,18.283l-1.051,2.4464,3.2043,7.2075c6.6812,15.028,9.7317,31.178,8.6399,45.741l-0.4525,6.0356h-68.903-68.903l0.009,3.0191c0.0135,4.3244,1.5744,10.354,3.8683,14.943,5.4203,10.843,14.382,18.127,27.289,22.179,6.1305,1.925,18.319,2.0931,24.746,0.34116,9.3562-2.5504,17.904-8.1333,23.823-15.56l3.1466-3.9478h24.661c19.31,0,24.659,0.1724,24.652,0.79449-0.005,0.43698-1.4532,3.7977-3.2182,7.4682-15.223,31.659-44.975,52.015-79.823,54.616-15.213,1.1354-30.311-1.3798-44.358-7.3893l-5.0561-2.1632-5.6496,2.6249c-11.165,5.1875-22.611,8.8763-32.543,10.488-6.9525,1.1282-12.04,1.116-17.374-0.0416h-0.000013zm29.759-7.9637c5.3663-1.4871,14.574-5.1723,17.668-7.0716l2.0873-1.2812-3.0407-1.9212c-16.534-10.46-31.226-28.4-37.991-46.42-0.62352-1.6605-1.3093-3.0184-1.524-3.0176-0.21469,0.00064-1.8673,3.5045-3.6726,7.786-12.978,30.78-10.631,48.497,7.0217,53.01,4.3009,1.0994,13.383,0.5896,19.451-1.0919zm112.92-108.7c-1.5526-14.854-12.986-28.619-28.181-33.928-18.259-6.3794-39.578-0.34528-50.708,14.353-4.7268,6.242-6.9878,11.885-8.3089,20.737l-0.40314,2.7013h44.002,44.002l-0.40385-3.8638zm39.563-38.88c4.0779-12.328,5.0709-21.988,2.9245-28.45-1.163-3.5016-5.102-8.2854-8.684-10.547-3.103-1.9589-8.726-3.4288-13.116-3.4288-5.237,0-15.481,2.3232-22.483,5.0985-9.4623,3.7508-9.2626,3.3459-3.0568,6.1999,11.351,5.22,20.229,11.572,29.371,21.015,3.2696,3.3772,7.4878,8.3569,9.3737,11.066,1.8859,2.7092,3.4958,4.9258,3.5776,4.9258s1.0238-2.6457,2.0934-5.8792z"/><path id="path3057" fill="#00F" d="m272.6,48.455,0-7.3093-6.9915,0-6.9915,0,0-1.9068,0-1.9068,6.9915,0,6.9915,0,0-6.9915,0-6.9915,1.9068,0,1.9068,0,0,6.9915,0,6.9915,7.3093,0,7.3093,0,0,1.886,0,1.886-7.1504,0.17971-7.1504,0.17972-0.17972,7.1504-0.17971,7.1504-1.886,0-1.886,0,0-7.3093z"/><path id="path3061" fill="#FFF" d="m117.82,135.05c1.4463-9.3769,5.1727-16.776,11.765-23.358,5.3754-5.3678,9.8975-8.2656,16.46-10.548,21.127-7.3473,44.241,1.8266,54.173,21.501,1.8952,3.7544,3.7128,10.265,3.7294,13.358l0.009,1.7479h-43.276-43.276l0.41665-2.7013z"/><path id="path3063" fill="#FFF" d="M237.07,93.863c-8.63-11.623-20.18-21.278-33.56-28.052l-7.7508-3.9259,2.6456-1.1845c10.117-4.5294,21.648-7.1881,28.852-6.6522,9.5626,0.71134,17.112,6.3811,19.296,14.491,1.6587,6.1601,0.4036,16.498-3.3261,27.396l-1.4578,4.2595-4.7024-6.331z"/><path id="path3065" fill="#FFF" d="m71.75,243.52c-3.8508-1.0259-8.8872-4.1429-10.684-6.6121-6.4375-8.8465-4.396-25.617,5.9181-48.617l1.7077-3.8081,2.0299,5.0793c6.3898,15.989,19.676,32.233,34.579,42.278l4.6316,3.1216-4.3138,2.1708c-5.6884,2.8625-15.189,6.0086-20.439,6.768-5.715,0.82676-9.2788,0.72588-13.43-0.38016z"/><path id="path3067" fill="#2672ec" d="M61.263,250.63c-15.117-3.74-21.209-18.19-17.796-42.2,2.031-14.29,4.204-21.13,11.25-35.4,14.069-28.5,35.384-58.3,56.063-78.373,8.3819-8.1362,8.2978-8.9525-0.40824-3.9606-10.651,6.1073-18.343,12.278-32.436,26.022-5.162,5.0342-9.5789,8.9595-9.8154,8.723-0.58394-0.58394,4.421-12.842,7.8902-19.324,3.8396-7.1747,9.3038-14.261,16.616-21.549,8.3709-8.3428,15.472-13.547,24.542-17.988,12.991-6.3598,23.478-9.0818,39.396-10.226,8.9614-0.64421,9.9675-0.85589,17.797-3.7442,18.388-6.7836,28.597-9.3139,40.256-9.9778,10.912-0.62134,19.138,1.3039,26.965,6.3112,4.0826,2.6116,6.103,5.0464,8.5825,10.343,1.666,3.5589,1.7698,4.2839,1.724,12.049-0.0544,9.2318-1.2566,14.783-5.8673,27.092l-2.4595,6.5659,2.0981,4.6039c6.4187,14.085,9.1085,25.309,9.5884,40.011,0.1957,5.9949,0.16911,11.644-0.0591,12.553l-0.41487,1.6531h-68.632-68.632v3.5629c0,14.545,11.315,29.249,27.338,35.529,8.7889,3.4443,22.248,3.7678,31.136,0.7482,8.0646-2.7396,11.873-5.2206,19.014-12.387l6.6195-6.6431,23.571,0.46436c12.964,0.2554,23.663,0.55057,23.774,0.65595,0.8264,0.77948-6.9112,15.235-11.871,22.178-19.312,27.033-52.542,42.314-85.338,39.242-9.6106-0.90013-20.031-3.4239-28.489-6.8996l-6.0034-2.4671-8.3227,3.6221c-19.599,8.5298-36.92,11.875-47.679,9.2096zm26.377-6.3604c7.3481-1.319,23.517-7.7232,23.517-9.3146,0-0.2633-1.7876-1.6935-3.9725-3.1782-16.449-11.178-29.326-27.169-36.942-45.876-0.53367-1.3109-1.2319-2.3835-1.5515-2.3835-0.66537,0-2.8588,4.7154-6.1084,13.132-5.2828,13.682-7.2832,26.92-5.1678,34.197,3.4158,11.75,13.817,16.369,30.225,13.424zm117.22-108.58c-1.2394-8.7736-4.4523-16.165-9.7011-22.318-9.7983-11.486-24.867-17.115-40.199-15.016-20.025,2.7405-34.007,15.783-37.638,35.109l-0.92552,4.9258h44.423,44.423l-0.38159-2.7013zm39.257-39.707c2.4854-7.4568,3.7252-14.166,3.8352-20.755,0.0837-5.0134-0.1262-6.2882-1.5461-9.3896-4.7637-10.405-15.798-14.655-30.38-11.7-8.649,1.7525-20.969,6.2792-20.969,7.7046,0,0.50691,2.8512,2.3319,6.5148,4.1701,14.43,7.24,26.536,17.527,36.116,30.688,1.8975,2.607,3.7361,4.665,4.0856,4.5734,0.34957-0.0917,1.4042-2.4729,2.3437-5.2915z"/><path id="path3069" fill="#2672ec" d="m272.6,48.455,0-7.3093-6.9915,0-6.9915,0,0-1.9068,0-1.9068,6.9915,0,6.9915,0,0-6.9915,0-6.9915,1.9068,0,1.9068,0,0,6.9915,0,6.9915,7.3093,0c7.2857,0,7.3093,0.0049,7.3093,1.521,0,2.036-0.9305,2.2926-8.3147,2.2926h-6.304v6.3039c0,7.3842-0.25656,8.3147-2.2926,8.3147-1.5161,0-1.521-0.02358-1.521-7.3093z"/><rect id="rect3071" height="31.46" width="357.75" y="-29.434" x="-28.314" fill="#FFF"/><rect id="rect3073" height="333.93" width="34.606" y="-4.2657" x="298.87" fill="#FFF"/><rect id="rect3075" height="12.584" width="345.61" y="299.1" x="-11.685" fill="#FFF"/><rect id="rect3077" height="321.34" width="26.966" y="-7.8611" x="-22.022" fill="#FFF"/></svg>
